<?xml version="1.0" encoding="UTF-8"?><svg id="Capa_1" xmlns="http://www.w3.org/2000/svg" viewBox="0 0 100 100"><defs><style>.cls-1{fill:#fff;}.cls-2{fill:#302e57;}.cls-3{fill:#e1241b;}</style></defs><rect class="cls-1" width="100" height="100" rx="11.49" ry="11.49"/><g><polygon class="cls-2" points="2.12 70.03 2.12 64.08 0 64.08 0 63.01 5.32 63.01 5.32 64.08 3.19 64.08 3.19 70.03 2.12 70.03"/><g><path class="cls-2" d="M10.8,67.16c-.05-.97-.68-1.58-1.64-1.58s-1.6,.62-1.71,1.58h3.35Zm.65,.61h-4c.13,.98,.83,1.61,1.78,1.61,.6,0,1.14-.23,1.52-.64l.4,.44c-.47,.53-1.15,.84-1.97,.84-1.44,0-2.44-1.04-2.44-2.54s1-2.54,2.43-2.54c1.59-.01,2.36,1.11,2.29,2.82"/><path class="cls-2" d="M16.96,65.39l-.28,.59c-.38-.24-.87-.41-1.33-.41-.55,0-.97,.2-.97,.67,0,1.11,2.73,.54,2.73,2.35,0,.99-.86,1.43-1.79,1.43-.7,0-1.42-.25-1.88-.71l.28-.56c.42,.4,1.05,.64,1.63,.64s1.04-.22,1.05-.71c.03-1.22-2.72-.59-2.7-2.38,0-.96,.81-1.36,1.7-1.36,.59,0,1.15,.17,1.56,.46"/><path class="cls-2" d="M19.99,67.49c0,1.11,.74,1.87,1.76,1.87s1.76-.76,1.76-1.87-.74-1.87-1.76-1.87-1.76,.77-1.76,1.87m4.24-.01c0,1.51-1.03,2.55-2.48,2.55s-2.48-1.04-2.48-2.55,1.03-2.53,2.48-2.53,2.48,1.03,2.48,2.53"/><path class="cls-2" d="M27.51,66.11c.33-.73,.93-1.13,1.76-1.14v.75c-1.03-.02-1.67,.64-1.76,1.64v2.67h-.72v-5.03h.72v1.11Z"/><path class="cls-2" d="M35.25,67.16c-.05-.97-.68-1.58-1.64-1.58s-1.6,.62-1.71,1.58h3.35Zm.65,.61h-4c.13,.98,.83,1.61,1.77,1.61,.6,0,1.14-.23,1.52-.64l.4,.44c-.47,.53-1.15,.84-1.97,.84-1.44,0-2.44-1.04-2.44-2.54s1.01-2.54,2.43-2.54c1.58-.01,2.36,1.11,2.29,2.82"/><path class="cls-2" d="M39.36,66.11c.33-.73,.93-1.13,1.76-1.14v.75c-1.03-.02-1.67,.64-1.76,1.64v2.67h-.72v-5.03h.72v1.11Z"/></g><rect class="cls-2" x="43.39" y="65" width=".72" height="5.03"/><path class="cls-2" d="M50.21,68.24v-.6h-1.52c-.82,0-1.25,.26-1.25,.82s.44,.91,1.13,.91c.83,0,1.46-.43,1.65-1.13m.01,.96c-.39,.55-1.02,.82-1.8,.82-1.01,0-1.67-.67-1.67-1.54s.68-1.44,1.83-1.45h1.61v-.3c0-.74-.45-1.18-1.31-1.18-.54,0-1.04,.21-1.55,.57l-.31-.55c.63-.43,1.16-.67,2-.67,1.21,0,1.88,.66,1.89,1.74v3.33h-.7v-.77Z"/><polygon class="cls-2" points="43.26 64.31 43.95 64.31 45.1 63.38 44.37 63.01 43.26 64.31"/><g><path class="cls-2" d="M41.44,77.94c.78,0,1.7-.25,1.7-1.42s-.93-1.38-1.7-1.38h-1.59v2.8h1.59Zm1.71,3.21l-1.36-2.15c-.12,0-.24,.01-.36,.01h-1.59v2.13h-1.08v-7.09h2.66c1.75,0,2.75,.89,2.75,2.43,0,1.1-.48,1.88-1.38,2.27l1.6,2.38h-1.26Z"/><path class="cls-2" d="M50.76,78.31c-.05-.96-.68-1.57-1.64-1.57s-1.6,.62-1.71,1.57h3.35Zm.65,.61h-4c.13,.98,.83,1.61,1.78,1.61,.6,0,1.13-.22,1.52-.63l.4,.44c-.47,.53-1.15,.84-1.97,.84-1.44,0-2.44-1.04-2.44-2.54s1.01-2.54,2.43-2.54c1.58-.01,2.36,1.12,2.29,2.82"/><path class="cls-2" d="M58.42,78.62c0-1.08-.72-1.87-1.75-1.87s-1.76,.78-1.76,1.87,.72,1.87,1.76,1.87,1.75-.78,1.75-1.87m.74,.02c0,1.49-.95,2.53-2.34,2.53-.87,0-1.54-.41-1.91-1.11v2.93h-.72v-6.88h.72v1.09c.36-.7,1.03-1.12,1.89-1.12,1.39,0,2.36,1.05,2.36,2.56"/><path class="cls-2" d="M66.04,81.15h-.72v-1.14c-.33,.78-.98,1.15-1.86,1.16-1.14,0-1.84-.74-1.84-1.96v-3.1h.73v2.9c0,.89,.51,1.42,1.36,1.42,1.01-.02,1.61-.77,1.61-1.84v-2.47h.72v5.03Z"/><path class="cls-2" d="M73.64,78.62c0-1.08-.72-1.87-1.75-1.87s-1.76,.78-1.76,1.87,.73,1.87,1.76,1.87,1.75-.78,1.75-1.87m.73,.02c0,1.49-.95,2.53-2.33,2.53-.87,0-1.54-.41-1.91-1.11v1.08h-.72v-7.09h.72v3.14c.36-.7,1.03-1.12,1.89-1.12,1.39,0,2.35,1.05,2.35,2.56"/></g><rect class="cls-2" x="77.04" y="74.06" width=".72" height="7.09"/><g><path class="cls-2" d="M80.94,76.12h.72v5.03h-.72v-5.03Zm.83-1.44c0,.3-.2,.51-.47,.51s-.47-.22-.47-.51,.2-.51,.47-.51,.47,.22,.47,.51"/><path class="cls-2" d="M88.76,76.84l-.4,.52c-.37-.36-.87-.58-1.46-.58-1.01,0-1.74,.76-1.74,1.85s.72,1.86,1.74,1.86c.64,0,1.17-.23,1.52-.64l.42,.45c-.44,.55-1.12,.87-1.96,.87-1.42,0-2.43-1.04-2.43-2.54s1.01-2.54,2.43-2.54c.79-.01,1.44,.27,1.89,.75"/><path class="cls-2" d="M94.24,79.41v-.6h-1.53c-.82,0-1.25,.26-1.25,.81s.44,.92,1.13,.92c.83,0,1.46-.43,1.65-1.13m.01,.97c-.39,.54-1.02,.81-1.8,.81-1.01,0-1.67-.67-1.67-1.53s.68-1.44,1.84-1.44h1.6v-.3c0-.74-.44-1.17-1.31-1.17-.54,0-1.04,.21-1.56,.57l-.31-.55c.63-.43,1.16-.68,2-.68,1.21,0,1.88,.66,1.89,1.74v3.32h-.69v-.77Z"/></g><polygon class="cls-2" points="63.47 75.36 64.17 75.36 65.32 74.43 64.59 74.06 63.47 75.36"/><g><path class="cls-2" d="M70.03,67.15c-.05-.97-.68-1.57-1.64-1.57s-1.6,.62-1.71,1.57h3.35Zm.65,.61h-4c.13,.98,.83,1.61,1.78,1.61,.61,0,1.14-.22,1.52-.64l.4,.44c-.46,.53-1.15,.84-1.97,.84-1.44,0-2.44-1.04-2.44-2.54s1-2.54,2.43-2.54c1.58-.01,2.36,1.11,2.29,2.82"/><path class="cls-2" d="M77.72,66.91v3.1h-.73v-2.9c0-.89-.52-1.42-1.38-1.42-.97,0-1.56,.66-1.65,1.62v2.7h-.72v-5.03h.72v1.11c.35-.77,1-1.12,1.9-1.14,1.17,0,1.86,.74,1.86,1.96"/><path class="cls-2" d="M84.5,67.15c-.05-.97-.68-1.57-1.64-1.57s-1.6,.62-1.71,1.57h3.35Zm.65,.61h-4c.13,.98,.83,1.61,1.78,1.61,.61,0,1.14-.22,1.52-.64l.4,.44c-.46,.53-1.15,.84-1.97,.84-1.44,0-2.44-1.04-2.44-2.54s1-2.54,2.43-2.54c1.58-.01,2.36,1.11,2.29,2.82"/><path class="cls-2" d="M88.55,66.1c.33-.73,.93-1.13,1.76-1.14v.75c-1.03-.02-1.67,.64-1.76,1.64v2.67h-.72v-5.03h.72v1.11Z"/><path class="cls-2" d="M95.45,68.23v-.6h-1.52c-.82,0-1.25,.26-1.25,.82s.44,.91,1.12,.91c.83,0,1.46-.43,1.65-1.13m0,.96c-.39,.55-1.01,.82-1.8,.82-1.01,0-1.66-.67-1.66-1.54s.68-1.43,1.83-1.44h1.61v-.3c0-.74-.45-1.17-1.31-1.17-.54,0-1.04,.21-1.55,.57l-.31-.55c.63-.43,1.16-.67,2-.67,1.21,0,1.88,.66,1.89,1.74v3.32h-.7v-.77Z"/></g><rect class="cls-2" x="99.28" y="62.94" width=".72" height="7.08"/><g><path class="cls-2" d="M61.04,70.01c-1.96,0-3.56-1.59-3.56-3.55s1.58-3.53,3.6-3.53c.92,0,1.84,.35,2.51,.96l.11,.1-.63,.84-.13-.12c-.51-.47-1.18-.73-1.86-.73-1.39,0-2.52,1.11-2.52,2.48s1.14,2.49,2.53,2.49c.52,0,1.08-.18,1.55-.49v-1.14h-1.86v-.94h2.85v2.67l-.06,.05c-.7,.58-1.64,.92-2.52,.92"/><path class="cls-2" d="M9.62,78.54c0-1.1-.74-1.89-1.77-1.89s-1.78,.79-1.78,1.89,.73,1.87,1.78,1.87,1.77-.78,1.77-1.87m.72,2.5h-.72v-1.08c-.36,.7-1.03,1.12-1.91,1.12-1.4,0-2.36-1.06-2.36-2.56s.97-2.55,2.36-2.55c.87,0,1.55,.41,1.92,1.13v-3.14h.72v7.09Z"/><path class="cls-2" d="M17.03,78.22c-.05-.96-.68-1.57-1.64-1.57s-1.6,.62-1.71,1.57h3.35Zm.65,.61h-4c.13,.98,.83,1.61,1.78,1.61,.61,0,1.14-.22,1.52-.63l.4,.44c-.47,.53-1.15,.84-1.97,.84-1.44,0-2.44-1.04-2.44-2.54s1-2.54,2.43-2.54c1.58-.01,2.36,1.12,2.29,2.82"/></g><rect class="cls-2" x="24.13" y="74" width=".72" height="7.08"/><g><path class="cls-2" d="M31,79.31v-.6h-1.53c-.82,0-1.25,.26-1.25,.81s.44,.92,1.12,.92c.83,0,1.46-.43,1.65-1.13m0,.97c-.39,.54-1.01,.81-1.8,.81-1.01,0-1.66-.67-1.66-1.53s.68-1.43,1.83-1.44h1.61v-.3c0-.74-.45-1.17-1.31-1.17-.54,0-1.04,.21-1.55,.57l-.31-.55c.63-.43,1.17-.68,2-.68,1.21,0,1.88,.66,1.89,1.74v3.32h-.7v-.77Z"/><path class="cls-3" d="M15.91,38.81l7.39,5.32c.15,.11,.35-.04,.29-.22l-2.9-8.67c-.04-.13-.19-.18-.29-.1l-4.49,3.36c-.1,.08-.1,.24,0,.31"/><path class="cls-2" d="M8.76,33.63L.43,27.61c-.15-.11-.08-.37,.12-.37H27.92c.19,0,.27,.25,.12,.37L5.89,44.13c-.15,.11-.36-.04-.3-.23l3.24-10.05c.03-.08,0-.17-.07-.23"/><path class="cls-2" d="M82.44,41.51c-.01,.12,.08,.22,.2,.22h4.98c2.89,0,4.71-1.53,4.97-4.38,.25-2.77-1.3-4.25-4.19-4.25h-5.02c-.1,0-.19,.08-.2,.18l-.74,8.22Zm8.58,14.32c-.08,0-.15-.05-.18-.12l-3.63-8.12h-5.14c-.1,0-.19,.08-.2,.18l-.67,7.88c-.01,.11-.1,.18-.2,.18h-6.76c-.12,0-.21-.1-.2-.22l2.49-28.19c.01-.1,.09-.18,.2-.18h12.13c7.27,0,11.09,3.61,10.53,9.87-.38,4.18-2.31,7.28-5.53,8.98-.09,.05-.13,.16-.09,.26l3.99,9.19c.06,.13-.04,.28-.18,.28h-6.57Z"/><path class="cls-2" d="M57.93,44.39h9.1c.11,0,.21,.1,.2,.22l-.31,3.51c0,.07-.05,.14-.11,.17-1.68,.81-3.39,1.27-4.73,1.27-4.44,0-7.48-3.48-7.07-8.08,.41-4.56,4.03-8.04,8.43-8.04,2.41,0,3.88,.21,5.63,2.01,.07,.07,.15,.08,.22,.02l5.29-3.95c.1-.08,.12-.24,.03-.33-2.62-2.47-6.63-3.95-10.58-3.95-8.65,0-15.62,6.08-16.35,14.23-.73,8.16,5.01,13.65,13.32,14.32,4.01,.32,8.64-1.32,11.62-3.54,.05-.03,.07-.09,.08-.15l.69-7.71,.43-4.46c.01-.12-.08-.22-.2-.22h-9.97s-.1,.03-.14,.06l-5.72,4.26c-.15,.12-.07,.36,.12,.36"/><path class="cls-2" d="M55.26,27.26H31.02s-.1,.01-.14,.04l-7.71,5.75c-.16,.12-.09,.4,.1,.4h10.68c.12,0,.21,.11,.2,.23l-2.13,21.94c-.01,.12,.08,.23,.2,.23h6.94c.1,0,.19-.08,.2-.19l2.18-22.03c.01-.11,.1-.19,.2-.19h5.64c.11,0,.21-.05,.25-.08l7.7-5.74c.15-.12,.11-.37-.09-.37"/><path class="cls-3" d="M17.58,25.9l-2.94-8.76c-.06-.18-.32-.18-.38,0l-2.84,8.76c-.04,.13,.05,.26,.18,.26h5.79c.13,0,.22-.13,.18-.26"/></g></g></svg>