<?xml version="1.0" encoding="UTF-8"?><svg id="Capa_1" xmlns="http://www.w3.org/2000/svg" xmlns:xlink="http://www.w3.org/1999/xlink" viewBox="0 0 100 100"><defs><style>.cls-1{fill:#fff;}.cls-2{fill:url(#Degradado_sin_nombre_11);}.cls-3{fill:url(#Degradado_sin_nombre_11-15);}.cls-4{fill:url(#Degradado_sin_nombre_11-13);}.cls-5{fill:url(#Degradado_sin_nombre_11-16);}.cls-6{fill:url(#Degradado_sin_nombre_11-14);}.cls-7{fill:url(#Degradado_sin_nombre_11-17);}.cls-8{fill:url(#Degradado_sin_nombre_11-10);}.cls-9{fill:url(#Degradado_sin_nombre_11-11);}.cls-10{fill:url(#Degradado_sin_nombre_11-12);}.cls-11{fill:url(#Degradado_sin_nombre_3);}.cls-12{fill:url(#Degradado_sin_nombre_11-9);}.cls-13{fill:url(#Degradado_sin_nombre_11-8);}.cls-14{fill:url(#Degradado_sin_nombre_11-6);}.cls-15{fill:url(#Degradado_sin_nombre_11-7);}.cls-16{fill:url(#Degradado_sin_nombre_11-5);}.cls-17{fill:url(#Degradado_sin_nombre_11-4);}.cls-18{fill:url(#Degradado_sin_nombre_11-3);}.cls-19{fill:url(#Degradado_sin_nombre_11-2);}</style><linearGradient id="Degradado_sin_nombre_3" x1="22.77" y1="94.14" x2="91.6" y2="38.84" gradientTransform="matrix(1, 0, 0, 1, 0, 0)" gradientUnits="userSpaceOnUse"><stop offset="0" stop-color="#ff7db4"/><stop offset=".15" stop-color="#fd7cb5"/><stop offset=".2" stop-color="#f679b8"/><stop offset=".24" stop-color="#ea74be"/><stop offset=".27" stop-color="#d96dc8"/><stop offset=".29" stop-color="#c363d3"/><stop offset=".32" stop-color="#a858e2"/><stop offset=".34" stop-color="#884af3"/><stop offset=".34" stop-color="#8047f8"/><stop offset=".7" stop-color="#0075fa"/><stop offset="1" stop-color="#00d4e1"/></linearGradient><linearGradient id="Degradado_sin_nombre_11" x1="11.69" y1="80.35" x2="80.52" y2="25.05" gradientTransform="matrix(1, 0, 0, 1, 0, 0)" gradientUnits="userSpaceOnUse"><stop offset="0" stop-color="#ff7db4"/><stop offset=".34" stop-color="#8047f8"/><stop offset=".7" stop-color="#0075fa"/><stop offset="1" stop-color="#00d4e1"/></linearGradient><linearGradient id="Degradado_sin_nombre_11-2" x1="31.88" y1="105.48" x2="100.7" y2="50.18" xlink:href="#Degradado_sin_nombre_11"/><linearGradient id="Degradado_sin_nombre_11-3" x1="2.61" y1="69.05" x2="71.44" y2="13.75" xlink:href="#Degradado_sin_nombre_11"/><linearGradient id="Degradado_sin_nombre_11-4" x1="18.07" y1="89.66" x2="86.89" y2="34.36" xlink:href="#Degradado_sin_nombre_11"/><linearGradient id="Degradado_sin_nombre_11-5" x1="20.88" y1="93.16" x2="89.71" y2="37.86" xlink:href="#Degradado_sin_nombre_11"/><linearGradient id="Degradado_sin_nombre_11-6" x1="23.36" y1="96.24" x2="92.18" y2="40.94" xlink:href="#Degradado_sin_nombre_11"/><linearGradient id="Degradado_sin_nombre_11-7" x1="27.04" y1="100.82" x2="95.86" y2="45.52" xlink:href="#Degradado_sin_nombre_11"/><linearGradient id="Degradado_sin_nombre_11-8" x1="29.78" y1="104.23" x2="98.6" y2="48.93" xlink:href="#Degradado_sin_nombre_11"/><linearGradient id="Degradado_sin_nombre_11-9" x1="33.06" y1="108.32" x2="101.89" y2="53.02" xlink:href="#Degradado_sin_nombre_11"/><linearGradient id="Degradado_sin_nombre_11-10" x1="35.9" y1="111.85" x2="104.73" y2="56.55" xlink:href="#Degradado_sin_nombre_11"/><linearGradient id="Degradado_sin_nombre_11-11" x1="49.84" y1="38.97" x2="50.22" y2="38.97" xlink:href="#Degradado_sin_nombre_11"/><linearGradient id="Degradado_sin_nombre_11-12" x1="52.05" y1="21.64" x2="52.29" y2="21.64" xlink:href="#Degradado_sin_nombre_11"/><linearGradient id="Degradado_sin_nombre_11-13" x1="25.37" y1="29.04" x2="63.59" y2="29.04" xlink:href="#Degradado_sin_nombre_11"/><linearGradient id="Degradado_sin_nombre_11-14" x1="49.44" y1="39.17" x2="50.22" y2="39.17" xlink:href="#Degradado_sin_nombre_11"/><linearGradient id="Degradado_sin_nombre_11-15" x1="28.94" y1="29.04" x2="67.17" y2="29.04" xlink:href="#Degradado_sin_nombre_11"/><linearGradient id="Degradado_sin_nombre_11-16" x1="32.52" y1="29.04" x2="70.75" y2="29.04" xlink:href="#Degradado_sin_nombre_11"/><linearGradient id="Degradado_sin_nombre_11-17" x1="36.1" y1="29.04" x2="74.33" y2="29.04" xlink:href="#Degradado_sin_nombre_11"/></defs><rect class="cls-1" width="100" height="100" rx="11.49" ry="11.49"/><g><g><path class="cls-11" d="M72.27,52.68c-1.08-1.09-2.36-1.96-3.83-2.6-1.47-.64-3.03-.96-4.69-.96s-3.22,.32-4.69,.96c-1.47,.64-2.75,1.5-3.84,2.6-1.09,1.1-1.96,2.38-2.6,3.84-.64,1.47-.96,3.03-.96,4.69s.32,3.22,.96,4.69c.64,1.47,1.5,2.75,2.6,3.84,1.09,1.1,2.37,1.96,3.84,2.6,1.47,.64,3.03,.96,4.69,.96s3.22-.32,4.69-.96c1.47-.64,2.74-1.5,3.83-2.6,1.08-1.09,1.94-2.37,2.58-3.84,.64-1.47,.96-3.03,.96-4.69s-.32-3.22-.96-4.69c-.64-1.47-1.5-2.75-2.58-3.84Zm-3.22,10.82c-.3,.72-.71,1.36-1.23,1.91-.52,.55-1.13,.99-1.83,1.32s-1.44,.49-2.23,.49-1.53-.16-2.23-.49-1.32-.77-1.85-1.32c-.53-.55-.95-1.19-1.24-1.91-.3-.72-.45-1.49-.45-2.3s.15-1.55,.45-2.28c.3-.73,.71-1.37,1.24-1.91,.53-.54,1.15-.98,1.85-1.31,.7-.33,1.45-.49,2.23-.49s1.53,.17,2.23,.49c.7,.33,1.31,.77,1.83,1.31,.52,.54,.93,1.18,1.23,1.91,.3,.73,.45,1.49,.45,2.28s-.15,1.57-.45,2.3Z"/><path class="cls-2" d="M48.54,63.28v-12.91c0-.21-.07-.39-.22-.54-.15-.15-.33-.22-.54-.22h-4.79c-.21,0-.39,.07-.54,.22-.15,.15-.22,.33-.22,.54v12.91c0,.83-.13,1.51-.4,2.06-.27,.54-.59,.97-.98,1.27-.38,.31-.8,.53-1.25,.65-.45,.13-1.2,.19-1.56,.19s-1.11-.06-1.56-.19c-.45-.13-.87-.34-1.26-.65-.39-.31-.73-.73-.99-1.27-.27-.54-.4-1.23-.4-2.06v-12.91c0-.21-.07-.39-.22-.54-.15-.15-.33-.22-.54-.22h-4.79c-.21,0-.39,.07-.54,.22-.15,.15-.22,.33-.22,.54v12.91c0,1.51,.24,2.88,.73,4.11,.49,1.23,1.18,2.28,2.07,3.16,.89,.87,1.96,1.55,3.21,2.02,1.25,.48,2.99,.72,4.52,.72s3.26-.24,4.52-.72c1.25-.48,2.32-1.15,3.21-2.02,.89-.87,1.58-1.92,2.05-3.16,.48-1.23,.72-2.6,.72-4.11Z"/><path class="cls-19" d="M99.78,49.83c-.15-.15-.33-.22-.54-.22h-4.79c-.21,0-.39,.07-.54,.22-.15,.15-.22,.33-.22,.54v12.91c0,.83-.13,1.51-.4,2.06-.27,.54-.59,.97-.98,1.27-.38,.31-.8,.53-1.25,.65-.45,.13-1.2,.19-1.56,.19s-1.11-.06-1.56-.19c-.45-.13-.87-.34-1.26-.65-.39-.31-.73-.73-.99-1.27-.27-.54-.4-1.23-.4-2.06v-12.91c0-.21-.07-.39-.22-.54-.15-.15-.33-.22-.54-.22h-4.79c-.21,0-.39,.07-.54,.22-.15,.15-.22,.33-.22,.54v12.91c0,1.51,.24,2.88,.73,4.11,.49,1.23,1.18,2.28,2.07,3.16,.89,.87,1.96,1.55,3.21,2.02,1.25,.48,2.99,.72,4.52,.72s3.26-.24,4.52-.72c1.25-.48,2.32-1.15,3.21-2.02,.89-.87,1.58-1.92,2.05-3.16,.48-1.23,.72-2.6,.72-4.11v-12.91c0-.21-.07-.39-.22-.54Z"/><path class="cls-18" d="M24.02,59.54c-.16-.14-.35-.21-.56-.21H12.5c-.21,0-.39,.07-.54,.22-.15,.15-.22,.33-.22,.54v3.79c0,.21,.07,.39,.22,.54,.15,.15,.33,.22,.54,.22h4.45c-.2,.44-.37,.67-.37,.67-.47,.68-1.09,1.17-1.88,1.47-.79,.3-1.58,.45-2.39,.45s-1.57-.16-2.28-.49c-.71-.33-1.33-.77-1.86-1.31-.53-.54-.95-1.17-1.26-1.9-.31-.72-.46-1.49-.46-2.3s.15-1.55,.46-2.28c.31-.73,.73-1.38,1.26-1.93,.53-.55,1.15-.99,1.86-1.32,.71-.33,1.47-.49,2.28-.49,1.13,0,2.1,.24,2.92,.73,.82,.49,1.56,1.14,2.22,1.94,.15,.17,.33,.27,.54,.3,.21,.03,.4,0,.57-.11l3.83-2.45c.17-.11,.28-.27,.33-.49,.05-.22,.03-.42-.08-.59-1.08-1.68-2.49-3-4.22-3.95-1.73-.96-3.77-1.43-6.1-1.43-1.7,0-3.29,.32-4.78,.96-1.49,.64-2.79,1.5-3.91,2.6-1.12,1.09-2,2.38-2.65,3.84-.65,1.47-.97,3.03-.97,4.69s.32,3.22,.97,4.69c.65,1.47,1.53,2.74,2.65,3.83,1.12,1.08,2.42,1.94,3.91,2.58,1.49,.64,3.08,.96,4.78,.96,1.55,0,3.02-.26,4.4-.78,1.38-.52,2.61-1.24,3.68-2.15,1.07-.91,1.95-2,2.63-3.25,.09-.17,.18-.34,.26-.52h0c.29-.61,.52-1.25,.69-1.91,0,0,0,0,0-.01h0c.13-.54,.23-1.08,.28-1.64,.06-.55,.1-1.09,.1-1.61s-.02-.96-.06-1.32c-.02-.23-.11-.42-.27-.56Z"/><g><path class="cls-17" d="M26.58,79.64h4.14v.89h-3.16v1.52h2.8v.89h-2.8v2.26h-.98v-5.56Z"/><path class="cls-16" d="M33.76,79.64h.98v5.56h-.98v-5.56Z"/><path class="cls-14" d="M38.12,79.64h.91l2.98,3.85v-3.85h.96v5.56h-.82l-3.07-3.96v3.96h-.96v-5.56Z"/><path class="cls-15" d="M48.28,79.6h.91l2.45,5.6h-1.03l-.56-1.34h-2.63l-.57,1.34h-1l2.45-5.6Zm1.4,3.39l-.96-2.22-.95,2.22h1.91Z"/><path class="cls-13" d="M54.49,79.64h.91l2.98,3.85v-3.85h.96v5.56h-.82l-3.07-3.96v3.96h-.96v-5.56Z"/><path class="cls-12" d="M62.43,82.44v-.02c0-1.58,1.18-2.88,2.87-2.88,1.02,0,1.64,.36,2.18,.87l-.63,.72c-.44-.41-.92-.69-1.56-.69-1.06,0-1.84,.87-1.84,1.96v.02c0,1.09,.77,1.98,1.84,1.98,.68,0,1.12-.28,1.6-.72l.63,.64c-.58,.6-1.22,.99-2.26,.99-1.62,0-2.83-1.26-2.83-2.86Z"/><path class="cls-8" d="M70.44,79.64h4.12v.87h-3.15v1.45h2.79v.87h-2.79v1.49h3.19v.87h-4.16v-5.56Z"/></g></g><g><path class="cls-9" d="M50.22,38.78c-.12,.13-.25,.26-.37,.39h0l.38-.39Z"/><path class="cls-10" d="M52.29,21.52c-.08,.08-.16,.16-.23,.24h0l.24-.24Z"/><path class="cls-4" d="M63.59,29.04c0,1.99-1.61,3.6-3.6,3.6-1,0-1.91-.41-2.56-1.07l-2.53,2.53-5.45,5.45c-2.35,2.18-5.44,3.58-8.86,3.79-.29,.02-.59,.03-.89,.03-1.29,0-2.53-.17-3.72-.49-1.27-.34-2.46-.85-3.57-1.5-1.04-.62-2-1.36-2.85-2.21-2.6-2.59-4.2-6.18-4.2-10.14,0-7.92,6.42-14.34,14.34-14.34,3.96,0,7.55,1.61,10.14,4.2l-2.53,2.53c-1.95-1.95-4.64-3.16-7.61-3.16-5.94,0-10.76,4.82-10.76,10.76,0,2.97,1.21,5.67,3.16,7.61,.86,.86,1.86,1.57,2.96,2.1,1.23,.59,2.59,.95,4.03,1.03,.2,.01,.41,.02,.61,.02,2.75,0,5.26-1.03,7.16-2.73,.27-.24,.53-.49,.77-.76,.03-.04,.07-.07,.1-.11l2.53-2.54,2.78-2.78,.96-.96,3.52-3.52c.64-.6,1.51-.97,2.46-.97s1.88,.4,2.53,1.04c.66,.65,1.07,1.56,1.07,2.56Z"/><path class="cls-6" d="M50.22,38.78c-.12,.13-.25,.26-.37,.39-.13,.13-.27,.26-.4,.39l.77-.77Z"/><path class="cls-3" d="M67.17,29.04c0,3.97-3.21,7.18-7.18,7.18-1.99,0-3.79-.81-5.09-2.12l2.53-2.53c.65,.66,1.56,1.07,2.56,1.07,1.99,0,3.6-1.61,3.6-3.6,0-1-.41-1.91-1.07-2.56-.65-.64-1.55-1.04-2.53-1.04s-1.81,.37-2.46,.97l-3.52,3.52-.96,.96-2.78,2.78-2.53,2.54s-.07,.07-.1,.11c-.24,.27-.5,.52-.77,.76-1.9,1.7-4.41,2.73-7.16,2.73-.21,0-.41,0-.61-.02-1.44-.08-2.8-.44-4.03-1.03-1.11-.53-2.11-1.24-2.96-2.1-1.95-1.95-3.16-4.64-3.16-7.61,0-5.94,4.82-10.76,10.76-10.76,2.97,0,5.67,1.21,7.61,3.16l-2.53,2.53c-1.3-1.3-3.1-2.11-5.08-2.11-3.96,0-7.18,3.21-7.18,7.18,0,1.98,.8,3.78,2.11,5.08,.88,.88,1.98,1.53,3.21,1.85,.59,.16,1.22,.25,1.87,.25,1.81,0,3.46-.67,4.73-1.77,.24-.21,.47-.44,.68-.68l8.44-8.44,1.36-1.36c1.3-1.3,3.09-2.1,5.08-2.1,.64,0,1.26,.08,1.85,.24,1.23,.33,2.34,.97,3.22,1.85,1.31,1.3,2.12,3.1,2.12,5.09Z"/><path class="cls-5" d="M70.75,29.04c0,5.94-4.82,10.76-10.76,10.76-2.98,0-5.68-1.21-7.62-3.17l2.53-2.53c1.3,1.31,3.1,2.12,5.09,2.12,3.97,0,7.18-3.21,7.18-7.18,0-1.99-.81-3.79-2.12-5.09-.88-.87-1.98-1.52-3.22-1.85-.59-.16-1.21-.24-1.85-.24-1.98,0-3.78,.8-5.08,2.1l-1.36,1.36-8.44,8.44c-.21,.24-.44,.47-.68,.68-1.26,1.11-2.92,1.77-4.73,1.77-.65,0-1.27-.09-1.87-.25-1.23-.33-2.33-.98-3.21-1.85-1.3-1.3-2.11-3.09-2.11-5.08,0-3.97,3.21-7.18,7.18-7.18,1.98,0,3.78,.8,5.08,2.11l-2.53,2.53c-.65-.65-1.55-1.06-2.55-1.06-1.99,0-3.6,1.61-3.6,3.6,0,1,.4,1.9,1.06,2.55,.65,.65,1.55,1.05,2.54,1.05,.86,0,1.65-.3,2.27-.81,.19-.16,.37-.33,.52-.52l9.56-9.56h0c.07-.07,.15-.16,.23-.24l.18-.18c1.94-1.9,4.59-3.06,7.52-3.06,.2,0,.4,0,.59,.02,1.44,.08,2.8,.44,4.04,1.03,1.11,.53,2.11,1.24,2.97,2.09,1.96,1.95,3.17,4.65,3.17,7.63Z"/><path class="cls-7" d="M74.33,29.04c0,7.92-6.42,14.34-14.34,14.34-3.96,0-7.55-1.61-10.14-4.21,.13-.13,.25-.26,.37-.39l2.15-2.15c1.95,1.96,4.64,3.17,7.62,3.17,5.95,0,10.76-4.82,10.76-10.76,0-2.98-1.21-5.68-3.17-7.63-.86-.86-1.86-1.57-2.97-2.09-1.23-.59-2.6-.95-4.04-1.03-.2,0-.39-.02-.59-.02-2.93,0-5.58,1.17-7.52,3.06,0,0-10.31,10.34-10.5,10.5-.62,.51-1.41,.81-2.27,.81-.99,0-1.89-.4-2.54-1.05-.65-.65-1.06-1.55-1.06-2.55,0-1.99,1.61-3.6,3.6-3.6,1,0,1.9,.4,2.55,1.06l2.53-2.53,2.53-2.53,2.53-2.53h0c2.39-2.39,5.63-3.95,9.23-4.17,.3-.02,.61-.03,.91-.03,1.28,0,2.52,.17,3.7,.48,1.27,.34,2.47,.84,3.57,1.49,1.04,.62,2,1.36,2.85,2.21,2.6,2.59,4.21,6.18,4.21,10.15Z"/></g></g></svg>