<?xml version="1.0" encoding="UTF-8"?><svg id="Capa_1" xmlns="http://www.w3.org/2000/svg" viewBox="0 0 100 100"><defs><style>.cls-1{fill:#fff;}.cls-2{fill:#252f3e;}</style></defs><rect class="cls-1" width="100" height="100" rx="11.49" ry="11.49"/><g><circle class="cls-2" cx="41.01" cy="27.92" r="19.53"/><path class="cls-2" d="M42.76,70.1c0,6.08,2.11,11.67,5.64,16.07,.45,.56,.13,1.41-.58,1.53-2.21,.4-4.48,.61-6.8,.61-11.5,0-21.82-5.11-28.8-13.17-2.95-3.41-2.95-8.48,0-11.89,6.98-8.07,17.29-13.18,28.8-13.18,2.81,0,5.54,.3,8.17,.88,.72,.16,1,1.05,.49,1.59-4.29,4.6-6.92,10.77-6.92,17.56Z"/><path class="cls-2" d="M89.99,65.15l-5.55-.79-.61-1.48,3.37-4.48-7-7-4.48,3.37-1.48-.61-.79-5.55h-9.91l-.79,5.55-1.48,.61-4.48-3.37-7,7,3.37,4.48-.61,1.48-5.55,.79v9.91l5.55,.79,.61,1.48-3.37,4.48,7,7,4.48-3.37,1.48,.61,.79,5.55h9.91l.79-5.55,1.48-.61,4.48,3.37,7-7-3.37-4.48,.61-1.48,5.55-.79v-9.91Zm-10.28,6.69c-.28,1.84-1.01,3.54-2.06,4.98-.69,.94-1.51,1.76-2.45,2.45-1.44,1.06-3.13,1.78-4.98,2.06-.57,.09-1.14,.13-1.73,.13s-1.17-.04-1.73-.13c-1.84-.28-3.54-1.01-4.98-2.06-.94-.69-1.76-1.51-2.45-2.45-1.06-1.44-1.78-3.13-2.06-4.98-.09-.57-.13-1.14-.13-1.73s.04-1.17,.13-1.73c.28-1.84,1.01-3.54,2.06-4.98,.69-.94,1.51-1.76,2.45-2.45,1.44-1.06,3.13-1.78,4.98-2.06,.57-.09,1.14-.13,1.73-.13s1.17,.04,1.73,.13c1.84,.28,3.54,1.01,4.98,2.06,.94,.69,1.76,1.51,2.45,2.45,1.06,1.44,1.78,3.13,2.06,4.98,.09,.57,.13,1.14,.13,1.73s-.04,1.17-.13,1.73Z"/></g></svg>