<?xml version="1.0" encoding="UTF-8"?><svg id="Capa_1" xmlns="http://www.w3.org/2000/svg" viewBox="0 0 100 100"><defs><style>.cls-1{fill:#0061a0;}.cls-2{fill:#ea520d;}.cls-3{fill:#fff;}</style></defs><rect class="cls-3" width="100" height="100" rx="11.49" ry="11.49"/><g><path class="cls-1" d="M30.07,40.77c-1.6-1.59-2.83-4.69-1.55-6.86h-12.44c-2.26,7.84,.71,13.15,7.73,18.33,4.12,3.06,7.95,7.8,6.67,12.42-.73,2.61-4.18,4.39-12.58,.77-1.97-1.04-4.3-1.9-4.3-1.9l-.07,13.17h.02c11.12,7.62,25.98,4.63,30.11-6.47,2.5-5.69,.49-15.43-4.52-20.33-2.44-2.39-6.22-6.09-9.06-9.12Z"/><circle class="cls-2" cx="57.53" cy="26.46" r="7.46"/><circle class="cls-2" cx="79.01" cy="26.46" r="7.46"/><rect class="cls-1" x="50.07" y="37.35" width="14.9" height="43.65"/><rect class="cls-1" x="71.55" y="37.35" width="14.9" height="43.65"/><rect class="cls-1" x="28.52" y="19" width="14.9" height="14.9"/></g></svg>