<?xml version="1.0" encoding="UTF-8"?><svg id="Capa_1" xmlns="http://www.w3.org/2000/svg" viewBox="0 0 100 100"><defs><style>.cls-1{fill:#fff;}.cls-2{fill:#252f3e;}.cls-3{fill:#f90;fill-rule:evenodd;}</style></defs><rect class="cls-1" width="100" height="100" rx="11.49" ry="11.49"/><g><path class="cls-2" d="M31.11,42.92c0,1.07,.12,1.93,.32,2.56,.23,.63,.52,1.32,.92,2.07,.14,.23,.2,.46,.2,.66,0,.29-.17,.58-.55,.86l-1.81,1.21c-.26,.17-.52,.26-.75,.26-.29,0-.58-.14-.86-.4-.4-.43-.75-.89-1.04-1.35-.29-.49-.58-1.04-.89-1.7-2.25,2.65-5.07,3.97-8.47,3.97-2.42,0-4.35-.69-5.76-2.07-1.41-1.38-2.13-3.23-2.13-5.53,0-2.45,.86-4.44,2.62-5.93,1.76-1.5,4.09-2.25,7.06-2.25,.98,0,1.99,.09,3.05,.23s2.16,.37,3.31,.63v-2.1c0-2.19-.46-3.72-1.35-4.61-.92-.89-2.48-1.32-4.69-1.32-1.01,0-2.04,.12-3.11,.37s-2.1,.58-3.11,.98c-.46,.2-.81,.32-1.01,.37-.2,.06-.35,.09-.46,.09-.4,0-.6-.29-.6-.89v-1.41c0-.46,.06-.81,.2-1.01s.4-.4,.81-.6c1.01-.52,2.22-.95,3.63-1.3,1.41-.37,2.91-.55,4.49-.55,3.43,0,5.93,.78,7.55,2.33,1.58,1.56,2.39,3.92,2.39,7.08v9.33h.06Zm-11.69,4.38c.95,0,1.93-.17,2.97-.52,1.04-.35,1.96-.98,2.74-1.84,.46-.55,.81-1.15,.98-1.84s.29-1.53,.29-2.51v-1.21c-.84-.2-1.73-.37-2.65-.49s-1.81-.17-2.71-.17c-1.93,0-3.34,.37-4.29,1.15-.95,.78-1.41,1.87-1.41,3.31,0,1.35,.35,2.36,1.07,3.05,.69,.72,1.7,1.07,3.02,1.07Zm23.13,3.11c-.52,0-.86-.09-1.09-.29-.23-.17-.43-.58-.6-1.12l-6.77-22.26c-.17-.58-.26-.95-.26-1.15,0-.46,.23-.72,.69-.72h2.82c.55,0,.92,.09,1.12,.29,.23,.17,.4,.58,.58,1.12l4.84,19.07,4.49-19.07c.14-.58,.32-.95,.55-1.12,.23-.17,.63-.29,1.15-.29h2.3c.55,0,.92,.09,1.15,.29,.23,.17,.43,.58,.55,1.12l4.55,19.3,4.98-19.3c.17-.58,.37-.95,.58-1.12,.23-.17,.6-.29,1.12-.29h2.68c.46,0,.72,.23,.72,.72,0,.14-.03,.29-.06,.46-.03,.17-.09,.4-.2,.72l-6.94,22.26c-.17,.58-.37,.95-.6,1.12s-.6,.29-1.09,.29h-2.48c-.55,0-.92-.09-1.15-.29s-.43-.58-.55-1.15l-4.46-18.58-4.44,18.55c-.14,.58-.32,.95-.55,1.15-.23,.2-.63,.29-1.15,.29h-2.48Zm37.01,.78c-1.5,0-3-.17-4.44-.52-1.44-.35-2.56-.72-3.31-1.15-.46-.26-.78-.55-.89-.81-.12-.26-.17-.55-.17-.81v-1.47c0-.6,.23-.89,.66-.89,.17,0,.35,.03,.52,.09,.17,.06,.43,.17,.72,.29,.98,.43,2.04,.78,3.17,1.01,1.15,.23,2.28,.35,3.43,.35,1.81,0,3.23-.32,4.2-.95,.98-.63,1.5-1.56,1.5-2.74,0-.81-.26-1.47-.78-2.02-.52-.55-1.5-1.04-2.91-1.5l-4.18-1.3c-2.1-.66-3.66-1.64-4.61-2.94-.95-1.27-1.44-2.68-1.44-4.18,0-1.21,.26-2.28,.78-3.2,.52-.92,1.21-1.73,2.07-2.36,.86-.66,1.84-1.15,3-1.5,1.15-.35,2.36-.49,3.63-.49,.63,0,1.3,.03,1.93,.12,.66,.09,1.27,.2,1.87,.32,.58,.14,1.12,.29,1.64,.46,.52,.17,.92,.35,1.21,.52,.4,.23,.69,.46,.86,.72,.17,.23,.26,.55,.26,.95v1.35c0,.6-.23,.92-.66,.92-.23,0-.6-.12-1.09-.35-1.64-.75-3.48-1.12-5.53-1.12-1.64,0-2.94,.26-3.83,.81s-1.35,1.38-1.35,2.56c0,.81,.29,1.5,.86,2.04,.58,.55,1.64,1.09,3.17,1.58l4.09,1.3c2.07,.66,3.57,1.58,4.46,2.76,.89,1.18,1.32,2.53,1.32,4.03,0,1.24-.26,2.36-.75,3.34-.52,.98-1.21,1.84-2.1,2.53-.89,.72-1.96,1.24-3.2,1.61-1.3,.4-2.65,.6-4.12,.6Z"/><g><path class="cls-3" d="M84.99,65.18c-9.47,7-23.24,10.71-35.08,10.71-16.59,0-31.54-6.13-42.82-16.33-.89-.81-.09-1.9,.98-1.27,12.21,7.08,27.27,11.38,42.85,11.38,10.51,0,22.06-2.19,32.69-6.68,1.58-.72,2.94,1.04,1.38,2.19Z"/><path class="cls-3" d="M88.94,60.68c-1.21-1.56-8.01-.75-11.09-.37-.92,.12-1.07-.69-.23-1.3,5.41-3.8,14.31-2.71,15.35-1.44,1.04,1.3-.29,10.19-5.36,14.46-.78,.66-1.53,.32-1.18-.55,1.15-2.85,3.72-9.27,2.51-10.8Z"/></g></g></svg>