<?xml version="1.0" encoding="utf-8"?>
<!-- Generator: Adobe Illustrator 26.3.1, SVG Export Plug-In . SVG Version: 6.00 Build 0)  -->
<svg version="1.1" id="Capa_1" xmlns="http://www.w3.org/2000/svg" xmlns:xlink="http://www.w3.org/1999/xlink" x="0px" y="0px"
	 viewBox="0 0 100 100" style="enable-background:new 0 0 100 100;" xml:space="preserve">
<style type="text/css">
	.st0{fill:#FFFFFF;}
	.st1{fill:#252F3E;}
</style>
<path class="st0" d="M11.5,0h77C94.9,0,100,5.1,100,11.5v77c0,6.3-5.1,11.5-11.5,11.5h-77C5.1,100,0,94.9,0,88.5v-77
	C0,5.1,5.1,0,11.5,0z"/>
<g>
	<circle class="st1" cx="42.5" cy="31.5" r="16.4"/>
	<path class="st1" d="M43.9,66.8c0,5.1,1.8,9.8,4.7,13.5c0.4,0.5,0.1,1.2-0.5,1.3c-1.9,0.3-3.8,0.5-5.7,0.5c-9.6,0-18.3-4.3-24.1-11
		c-2.5-2.9-2.5-7.1,0-10c5.8-6.8,14.5-11,24.1-11c2.4,0,4.6,0.3,6.8,0.7c0.6,0.1,0.8,0.9,0.4,1.3C46.1,56,43.9,61.1,43.9,66.8z"/>
	<path class="st1" d="M83.5,62.7L78.8,62l-0.5-1.2l2.8-3.8l-5.9-5.9L71.5,54l-1.2-0.5l-0.7-4.6h-8.3l-0.7,4.6L59.4,54l-3.8-2.8
		L49.8,57l2.8,3.8L52.1,62l-4.6,0.7V71l4.6,0.7l0.5,1.2l-2.8,3.8l5.9,5.9l3.8-2.8l1.2,0.5l0.7,4.6h8.3l0.7-4.6l1.2-0.5l3.8,2.8
		l5.9-5.9l-2.8-3.8l0.5-1.2l4.6-0.7C83.5,71,83.5,62.7,83.5,62.7z M74.9,68.3c-0.2,1.5-0.8,3-1.7,4.2c-0.6,0.8-1.3,1.5-2.1,2.1
		c-1.2,0.9-2.6,1.5-4.2,1.7c-0.5,0.1-1,0.1-1.4,0.1c-0.5,0-1,0-1.4-0.1c-1.5-0.2-3-0.8-4.2-1.7c-0.8-0.6-1.5-1.3-2.1-2.1
		c-0.9-1.2-1.5-2.6-1.7-4.2c-0.1-0.5-0.1-1-0.1-1.4s0-1,0.1-1.4c0.2-1.5,0.8-3,1.7-4.2c0.6-0.8,1.3-1.5,2.1-2.1
		c1.2-0.9,2.6-1.5,4.2-1.7c0.5-0.1,1-0.1,1.4-0.1c0.5,0,1,0,1.4,0.1c1.5,0.2,3,0.8,4.2,1.7c0.8,0.6,1.5,1.3,2.1,2.1
		c0.9,1.2,1.5,2.6,1.7,4.2c0.1,0.5,0.1,1,0.1,1.4S75,67.8,74.9,68.3z"/>
</g>
</svg>
